<svg version="1.2" xmlns="http://www.w3.org/2000/svg" viewBox="0 0 41 41" width="41" height="41"><defs><linearGradient id="P" gradientUnits="userSpaceOnUse"/><linearGradient id="g1" x1=".7" y1=".1" x2="40.7" y2="40.1" href="#P"><stop stop-color="#ff3b49"/><stop stop-color="#ff3b49"/><stop offset="1" stop-color="#ff3b49"/></linearGradient></defs><style>.s0{fill:url(#g1)}</style><path class="s0" d="m20.7 25.7c-3 0-5.5-2.5-5.5-5.6c0-3.1 2.5-5.6 5.5-5.6c3.1 0 5.6 2.5 5.6 5.6c0 3.1-2.5 5.6-5.6 5.6zm0-9.7c-2.3 0-4.1 1.8-4.1 4.1c0 2.3 1.8 4.1 4.1 4.1c2.3 0 4.1-1.8 4.1-4.1c0-2.3-1.8-4.1-4.1-4.1zm-2.4 24.2c-0.3 0-0.6-0.2-0.7-0.6l-1.2-4.9q-1.5-0.5-2.9-1.2l-4.4 2.6c-0.3 0.2-0.6 0.1-0.9-0.1l-3.4-3.4c-0.2-0.2-0.2-0.6-0.1-0.9l2.7-4.4q-0.8-1.4-1.2-2.8l-5-1.3c-0.3-0.1-0.5-0.4-0.5-0.7v-4.8c0-0.4 0.2-0.6 0.5-0.7l5-1.3q0.4-1.4 1.2-2.8l-2.7-4.4c-0.1-0.3-0.1-0.7 0.1-0.9l3.4-3.4c0.3-0.3 0.6-0.3 0.9-0.1l4.4 2.6q1.4-0.7 2.8-1.2l1.3-5c0.1-0.3 0.4-0.5 0.7-0.5h4.8c0.3 0 0.6 0.2 0.7 0.5l1.3 5q1.4 0.5 2.8 1.2l4.4-2.6c0.3-0.2 0.6-0.2 0.9 0.1l3.4 3.4c0.2 0.2 0.3 0.6 0.1 0.9l-2.7 4.4q0.8 1.4 1.2 2.8l5 1.3c0.3 0 0.5 0.3 0.5 0.7v4.8c0 0.3-0.2 0.6-0.5 0.7l-5 1.3q-0.4 1.4-1.1 2.8l2.6 4.4c0.2 0.3 0.1 0.7-0.1 0.9l-3.4 3.4c-0.3 0.2-0.6 0.3-0.9 0.1l-4.4-2.6q-1.4 0.7-2.8 1.2l-1.3 4.9c-0.1 0.4-0.3 0.6-0.7 0.6h-4.8zm-4.8-8.3q0.2 0 0.4 0.1q1.6 0.9 3.3 1.4c0.2 0.1 0.4 0.3 0.5 0.5l1.2 4.8h3.7l1.2-4.8c0-0.2 0.2-0.4 0.5-0.5q1.7-0.5 3.2-1.4c0.3-0.1 0.5-0.1 0.8 0l4.3 2.6l2.6-2.6l-2.6-4.3c-0.1-0.3-0.1-0.5 0-0.8q0.9-1.5 1.3-3.2c0.1-0.3 0.3-0.5 0.6-0.5l4.8-1.3v-3.7l-4.8-1.2c-0.3 0-0.5-0.2-0.6-0.5q-0.4-1.7-1.3-3.3c-0.1-0.2-0.1-0.5 0-0.7l2.6-4.3l-2.7-2.6l-4.2 2.6c-0.3 0.1-0.5 0.1-0.8 0q-1.5-0.9-3.2-1.4c-0.3-0.1-0.5-0.3-0.5-0.5l-1.2-4.9h-3.7l-1.3 4.9c0 0.2-0.2 0.4-0.5 0.5q-1.7 0.5-3.2 1.4c-0.3 0.1-0.5 0.1-0.8 0l-4.2-2.6l-2.7 2.6l2.6 4.3c0.1 0.2 0.1 0.5 0 0.7q-0.9 1.6-1.4 3.3c0 0.3-0.2 0.5-0.5 0.5l-4.8 1.2v3.8l4.8 1.2c0.3 0 0.5 0.2 0.6 0.5q0.4 1.7 1.3 3.3c0.1 0.2 0.1 0.5 0 0.7l-2.6 4.3l2.7 2.6l4.2-2.6q0.2-0.1 0.4-0.1z" /></svg>